<svg width="55" height="11" viewBox="0 0 55 11" fill="none" xmlns="http://www.w3.org/2000/svg">
<path d="M7.602 10C7.50867 10 7.42933 9.972 7.364 9.916C7.308 9.85067 7.28 9.77133 7.28 9.678V1.46H3.808V3.714C3.808 5.21667 3.70067 6.416 3.486 7.312C3.27133 8.208 2.93533 8.866 2.478 9.286C2.02067 9.706 1.414 9.93933 0.658 9.986C0.564667 9.99533 0.485333 9.96733 0.42 9.902C0.354667 9.83667 0.322 9.75267 0.322 9.65V9.034C0.322 8.95 0.345333 8.88 0.392 8.824C0.448 8.75867 0.522667 8.72133 0.616 8.712C1.22267 8.628 1.68 8.18 1.988 7.368C2.30533 6.556 2.464 5.27733 2.464 3.532V0.521999C2.464 0.428666 2.492 0.354 2.548 0.298C2.61333 0.232666 2.69267 0.199999 2.786 0.199999H8.33C8.42333 0.199999 8.498 0.232666 8.554 0.298C8.61933 0.354 8.652 0.433333 8.652 0.535999V9.678C8.652 9.77133 8.61933 9.85067 8.554 9.916C8.498 9.972 8.42333 10 8.33 10H7.602ZM13.8891 10.14C12.8624 10.14 12.0644 9.85067 11.4951 9.272C10.9351 8.69333 10.6364 7.92333 10.5991 6.962L10.5851 6.36L10.5991 5.758C10.6364 4.806 10.9398 4.04067 11.5091 3.462C12.0784 2.874 12.8718 2.58 13.8891 2.58C14.9064 2.58 15.6998 2.874 16.2691 3.462C16.8384 4.04067 17.1418 4.806 17.1791 5.758C17.1884 5.86067 17.1931 6.06133 17.1931 6.36C17.1931 6.65867 17.1884 6.85933 17.1791 6.962C17.1418 7.92333 16.8384 8.69333 16.2691 9.272C15.7091 9.85067 14.9158 10.14 13.8891 10.14ZM13.8891 9.062C14.4771 9.062 14.9391 8.87533 15.2751 8.502C15.6204 8.12867 15.8071 7.592 15.8351 6.892C15.8444 6.79867 15.8491 6.62133 15.8491 6.36C15.8491 6.09867 15.8444 5.92133 15.8351 5.828C15.8071 5.128 15.6204 4.59133 15.2751 4.218C14.9391 3.84467 14.4771 3.658 13.8891 3.658C13.3011 3.658 12.8344 3.84467 12.4891 4.218C12.1438 4.59133 11.9618 5.128 11.9431 5.828L11.9291 6.36L11.9431 6.892C11.9618 7.592 12.1438 8.12867 12.4891 8.502C12.8344 8.87533 13.3011 9.062 13.8891 9.062ZM19.2682 10C19.1748 10 19.0955 9.972 19.0302 9.916C18.9742 9.85067 18.9462 9.77133 18.9462 9.678V3.042C18.9462 2.94867 18.9742 2.874 19.0302 2.818C19.0955 2.75267 19.1748 2.72 19.2682 2.72H23.4542C23.5475 2.72 23.6222 2.75267 23.6782 2.818C23.7435 2.874 23.7762 2.94867 23.7762 3.042V3.518C23.7762 3.61133 23.7435 3.69067 23.6782 3.756C23.6222 3.812 23.5475 3.84 23.4542 3.84H20.2622V9.678C20.2622 9.77133 20.2295 9.85067 20.1642 9.916C20.1082 9.972 20.0335 10 19.9402 10H19.2682ZM27.7934 10.14C26.7667 10.14 25.9687 9.85067 25.3994 9.272C24.8394 8.69333 24.5407 7.92333 24.5034 6.962L24.4894 6.36L24.5034 5.758C24.5407 4.806 24.8441 4.04067 25.4134 3.462C25.9827 2.874 26.7761 2.58 27.7934 2.58C28.8107 2.58 29.6041 2.874 30.1734 3.462C30.7427 4.04067 31.0461 4.806 31.0834 5.758C31.0927 5.86067 31.0974 6.06133 31.0974 6.36C31.0974 6.65867 31.0927 6.85933 31.0834 6.962C31.0461 7.92333 30.7427 8.69333 30.1734 9.272C29.6134 9.85067 28.8201 10.14 27.7934 10.14ZM27.7934 9.062C28.3814 9.062 28.8434 8.87533 29.1794 8.502C29.5247 8.12867 29.7114 7.592 29.7394 6.892C29.7487 6.79867 29.7534 6.62133 29.7534 6.36C29.7534 6.09867 29.7487 5.92133 29.7394 5.828C29.7114 5.128 29.5247 4.59133 29.1794 4.218C28.8434 3.84467 28.3814 3.658 27.7934 3.658C27.2054 3.658 26.7387 3.84467 26.3934 4.218C26.0481 4.59133 25.8661 5.128 25.8474 5.828L25.8334 6.36L25.8474 6.892C25.8661 7.592 26.0481 8.12867 26.3934 8.502C26.7387 8.87533 27.2054 9.062 27.7934 9.062ZM35.0765 10C34.9831 10 34.9038 9.972 34.8385 9.916C34.7825 9.85067 34.7545 9.77133 34.7545 9.678V3.84H32.3185C32.2251 3.84 32.1458 3.812 32.0805 3.756C32.0245 3.69067 31.9965 3.61133 31.9965 3.518V3.042C31.9965 2.94867 32.0245 2.874 32.0805 2.818C32.1458 2.75267 32.2251 2.72 32.3185 2.72H38.4785C38.5718 2.72 38.6465 2.75267 38.7025 2.818C38.7678 2.874 38.8005 2.94867 38.8005 3.042V3.518C38.8005 3.61133 38.7678 3.69067 38.7025 3.756C38.6465 3.812 38.5718 3.84 38.4785 3.84H36.0425V9.678C36.0425 9.77133 36.0145 9.85067 35.9585 9.916C35.9025 9.972 35.8278 10 35.7345 10H35.0765ZM46.2025 2.72C46.2772 2.72 46.3425 2.748 46.3985 2.804C46.4638 2.86 46.4965 2.92533 46.4965 3V9.678C46.4965 9.77133 46.4638 9.85067 46.3985 9.916C46.3425 9.972 46.2678 10 46.1745 10H45.5165C45.4232 10 45.3438 9.972 45.2785 9.916C45.2225 9.85067 45.1945 9.77133 45.1945 9.678V4.596L41.3165 9.79C41.2138 9.93 41.0925 10 40.9525 10H40.3225C40.2385 10 40.1638 9.972 40.0985 9.916C40.0425 9.85067 40.0145 9.78067 40.0145 9.706V3.042C40.0145 2.94867 40.0425 2.874 40.0985 2.818C40.1638 2.75267 40.2432 2.72 40.3365 2.72H41.0085C41.1018 2.72 41.1765 2.75267 41.2325 2.818C41.2978 2.874 41.3305 2.94867 41.3305 3.042V8.096L45.1945 2.93C45.2972 2.79 45.4185 2.72 45.5585 2.72H46.2025ZM48.8678 10C48.7744 10 48.6951 9.972 48.6298 9.916C48.5738 9.85067 48.5458 9.77133 48.5458 9.678V3.042C48.5458 2.94867 48.5738 2.874 48.6298 2.818C48.6951 2.75267 48.7744 2.72 48.8678 2.72H54.4258C54.5191 2.72 54.5938 2.75267 54.6498 2.818C54.7151 2.874 54.7478 2.94867 54.7478 3.042V9.678C54.7478 9.77133 54.7151 9.85067 54.6498 9.916C54.5938 9.972 54.5191 10 54.4258 10H53.7538C53.6604 10 53.5858 9.972 53.5298 9.916C53.4738 9.85067 53.4458 9.77133 53.4458 9.678V3.84H49.8618V9.678C49.8618 9.77133 49.8291 9.85067 49.7638 9.916C49.7078 9.972 49.6331 10 49.5398 10H48.8678Z" fill="white"/>
</svg>
